# xmcd
#
# Track frame offsets: 
#        150
#        5991
#        7526
#        26340
#        47595
#        66992
#        84090
#        110666
#        126606
#        130907
#        151439
#
# Disc length: 2280 seconds
#
# Revision: 0
# Processed by: cddbd v1.5.2PL0 Copyright (c) Steve Scherf et al.
# Submitted via: ExactAudioCopy v0.99pb3
#
DISCID=8708e60b
DTITLE=Vaiping - Industrial Workers of the World
DYEAR=2009
DGENRE=Latin
TTITLE0=Land for sale
TTITLE1=Street talk
TTITLE2=IWW
TTITLE3=Translatlantik
TTITLE4=Wind will blow
TTITLE5=Listen up
TTITLE6=Victory
TTITLE7=The blue ribbon
TTITLE8=Salvation army
TTITLE9=High hopes
TTITLE10=Pie in the sky
EXTD=
EXTT0=
EXTT1=
EXTT2=
EXTT3=
EXTT4=
EXTT5=
EXTT6=
EXTT7=
EXTT8=
EXTT9=
EXTT10=
PLAYORDER=
